Coordinates
version=1
nRows=16
nColumns=40
inDegrees=yes

Units are S.I. units (second, meters, Newtons, ...)
If the header above contains a line with 'inDegrees', this indicates whether rotational values are in degrees (yes) or radians (no).

endheader
time	pelvis_tilt	pelvis_list	pelvis_rotation	pelvis_tx	pelvis_ty	pelvis_tz	hip_flexion_r	hip_adduction_r	hip_rotation_r	knee_angle_r	knee_angle_r_beta	ankle_angle_r	subtalar_angle_r	mtp_angle_r	hip_flexion_l	hip_adduction_l	hip_rotation_l	knee_angle_l	knee_angle_l_beta	ankle_angle_l	subtalar_angle_l	mtp_angle_l	lumbar_extension	lumbar_bending	lumbar_rotation	arm_flex_r	arm_add_r	arm_rot_r	elbow_flex_r	pro_sup_r	wrist_flex_r	wrist_dev_r	arm_flex_l	arm_add_l	arm_rot_l	elbow_flex_l	pro_sup_l	wrist_flex_l	wrist_dev_l
      4.90500000	    -40.71435178	      6.37699886	      2.44077097	     -0.45253861	      0.71929858	     -0.91003690	    102.10035398	    -16.72696964	      5.92820467	     84.45015613	      1.47393328	     27.85822280	      0.00000000	      0.00000000	     98.46433768	     -6.32402328	     -3.19913297	     83.04991835	      1.44949452	     29.22549728	      0.00000000	      0.00000000	    -34.78508861	     -2.45056999	    -11.20923748	     -3.57314201	    -62.70431182	     64.59265995	    109.81366231	     87.93641656	      0.00000000	      0.00000000	     -2.81627285	    -64.80971212	     66.42994783	    104.46693616	     88.13606759	      0.00000000	      0.00000000
      4.91000000	    -40.65801577	      6.28545637	      2.44257868	     -0.45235747	      0.72052522	     -0.91006646	    101.86327969	    -16.68538882	      5.86934506	     84.28790062	      1.47110139	     27.86907300	      0.00000000	      0.00000000	     98.28585509	     -6.26888032	     -3.08227658	     82.83417422	      1.44572907	     29.18291390	      0.00000000	      0.00000000	    -34.84786521	     -2.34717127	    -11.14290703	     -3.37433627	    -62.73890256	     64.77550192	    109.71628108	     87.93746396	      0.00000000	      0.00000000	     -2.67051733	    -64.77408037	     66.52894974	    104.47284582	     88.13994422	      0.00000000	      0.00000000
      4.91500000	    -41.22183577	      6.21279581	      2.44718271	     -0.45358531	      0.72051181	     -0.91024039	    102.35637244	    -16.55608234	      5.85598233	     83.98768056	      1.46586156	     27.70123829	      0.00000000	      0.00000000	     98.87096448	     -6.26222691	     -2.99278693	     82.64996109	      1.44251395	     28.95443433	      0.00000000	      0.00000000	    -34.20547407	     -2.31573785	    -11.12082221	     -3.13469302	    -62.80898701	     65.11105931	    109.85066062	     87.93078931	      0.00000000	      0.00000000	     -2.78702711	    -64.80657929	     66.57996919	    104.51048173	     88.13798323	      0.00000000	      0.00000000
      4.92000000	    -41.12206403	      6.25295439	      2.28803425	     -0.45280450	      0.72195342	     -0.90995292	    102.06735313	    -16.38475989	      5.82636046	     83.80167642	      1.46261517	     27.71595920	      0.00000000	      0.00000000	     98.58247173	     -6.39126776	     -3.00988304	     82.50067943	      1.43990849	     29.01946012	      0.00000000	      0.00000000	    -34.41872081	     -2.40039827	    -11.00864866	     -3.79989966	    -62.67373750	     64.26260491	    109.68122199	     87.84714479	      0.00000000	      0.00000000	     -3.45712797	    -64.68738921	     65.60191176	    104.34161312	     88.19535313	      0.00000000	      0.00000000
      4.92500000	    -40.91983913	      6.36286698	      2.34192568	     -0.45233873	      0.72343985	     -0.91028924	    101.75690533	    -16.47371561	      5.92699909	     83.65039782	      1.45997486	     27.74739901	      0.00000000	      0.00000000	     98.19908750	     -6.26969977	     -3.14934063	     82.31805860	      1.43672116	     29.01667170	      0.00000000	      0.00000000	    -34.56380443	     -2.44330801	    -11.12493576	     -2.77781134	    -62.74100779	     65.40783896	    109.66771816	     87.96663728	      0.00000000	      0.00000000	     -2.54188390	    -64.76347829	     66.72078074	    104.38281401	     88.11006014	      0.00000000	      0.00000000
      4.93000000	    -41.27611917	      6.35852839	      2.11360394	     -0.45303460	      0.72404711	     -0.90990554	    101.97498832	    -16.08640360	      5.95092669	     83.31773300	      1.45416877	     27.60816774	      0.00000000	      0.00000000	     98.48073053	     -6.50196129	     -3.07972146	     82.11676137	      1.43320786	     28.89283409	      0.00000000	      0.00000000	    -34.12378093	     -2.59431240	    -10.92387056	     -2.58852885	    -62.78159682	     65.67053594	    109.74077112	     87.92441183	      0.00000000	      0.00000000	     -2.56908585	    -64.78878786	     66.80579712	    104.40961647	     88.13738246	      0.00000000	      0.00000000
      4.93500000	    -40.98343954	      6.35113512	      2.33110081	     -0.45197017	      0.72590113	     -0.91046689	    101.49262546	    -16.40523936	      5.90860697	     83.19834961	      1.45208513	     27.72380384	      0.00000000	      0.00000000	     97.96338096	     -6.18992885	     -3.12459704	     81.87908136	      1.42905956	     28.93169128	      0.00000000	      0.00000000	    -34.43901716	     -2.40648170	    -11.14219220	     -2.20682514	    -62.78084154	     66.03535474	    109.61840371	     87.92476532	      0.00000000	      0.00000000	     -2.41909513	    -64.72647498	     66.88628303	    104.27961750	     88.13922413	      0.00000000	      0.00000000
      4.94000000	    -41.15618769	      6.26242201	      2.20206199	     -0.45216817	      0.72665348	     -0.91016178	    101.54917587	    -16.19848154	      5.82350361	     83.08478851	      1.45010312	     27.67700788	      0.00000000	      0.00000000	     98.09539589	     -6.32229567	     -3.01112417	     81.80062252	      1.42769019	     28.93744329	      0.00000000	      0.00000000	    -34.22774428	     -2.40093099	    -10.96162056	     -2.52872639	    -62.72022022	     65.69274814	    109.75363197	     87.83427245	      0.00000000	      0.00000000	     -2.75548854	    -64.67980198	     66.47979684	    104.41853881	     88.16271710	      0.00000000	      0.00000000
      4.94500000	    -41.15025463	      6.38795938	      2.17505889	     -0.45168297	      0.72833073	     -0.91025425	    101.32280541	    -16.15145597	      5.91806224	     82.70160504	      1.44341530	     27.69732757	      0.00000000	      0.00000000	     97.81565388	     -6.28533309	     -3.13790602	     81.45625185	      1.42167979	     28.92576241	      0.00000000	      0.00000000	    -34.23316490	     -2.52390113	    -10.99389459	     -2.43820921	    -62.65784610	     65.72000819	    109.54555470	     87.84342661	      0.00000000	      0.00000000	     -2.70579196	    -64.64328775	     66.46223629	    104.18673358	     88.20527996	      0.00000000	      0.00000000
      4.95000000	    -41.38093545	      6.19992864	      2.24707900	     -0.45184900	      0.72931357	     -0.91031995	    101.33272208	    -16.14444705	      5.77071720	     82.45383494	      1.43909090	     27.72291742	      0.00000000	      0.00000000	     97.96174372	     -6.18898324	     -2.93722767	     81.25079854	      1.41809395	     28.99915535	      0.00000000	      0.00000000	    -33.93184782	     -2.32301796	    -10.92437012	     -2.59373338	    -62.67870894	     65.57848061	    109.55620279	     87.80165932	      0.00000000	      0.00000000	     -2.89048957	    -64.60035025	     66.27350665	    104.17920734	     88.22085707	      0.00000000	      0.00000000
      4.95500000	    -40.97484942	      6.29253064	      2.40349327	     -0.45048749	      0.73159952	     -0.91081222	    100.73531650	    -16.42404591	      5.79434743	     82.30615922	      1.43651347	     27.58432544	      0.00000000	      0.00000000	     97.27272408	     -5.92536071	     -3.07107054	     80.98456554	      1.41344731	     28.82750942	      0.00000000	      0.00000000	    -34.34738237	     -2.26322793	    -11.12978579	     -2.33418859	    -62.60079214	     65.71931714	    109.47183287	     87.87529496	      0.00000000	      0.00000000	     -2.64109066	    -64.54671600	     66.42859643	    104.10277711	     88.17075415	      0.00000000	      0.00000000
      4.96000000	    -41.16311908	      6.20611556	      2.15656602	     -0.45082494	      0.73268812	     -0.91028059	    100.71606026	    -16.04277462	      5.72978676	     81.98897788	      1.43097761	     27.50043520	      0.00000000	      0.00000000	     97.35764462	     -6.20007218	     -2.97267258	     80.77708613	      1.40982611	     28.74442271	      0.00000000	      0.00000000	    -33.98704730	     -2.34858896	    -10.87108644	     -1.48733087	    -62.71398231	     66.78736895	    109.52770686	     87.91903774	      0.00000000	      0.00000000	     -2.02003415	    -64.59540827	     67.31790744	    104.11181101	     88.14730617	      0.00000000	      0.00000000
      4.96500000	    -41.23482887	      6.36298869	      2.47035799	     -0.45048379	      0.73428101	     -0.91112501	    100.66117847	    -16.43041795	      5.83621765	     81.70930460	      1.42609639	     27.46351109	      0.00000000	      0.00000000	     97.16769831	     -5.73588467	     -3.07242381	     80.38427007	      1.40297018	     28.64104812	      0.00000000	      0.00000000	    -33.87207826	     -2.31935696	    -11.20936089	     -1.41405392	    -62.58779701	     66.82382750	    109.54159841	     87.94280550	      0.00000000	      0.00000000	     -2.16164725	    -64.62622229	     67.09578465	    104.05369718	     88.15489780	      0.00000000	      0.00000000
      4.97000000	    -41.64392294	      6.23284436	      2.24464035	     -0.45117495	      0.73495833	     -0.91085051	    100.88660254	    -16.04028204	      5.77360760	     81.39001556	      1.42052375	     27.29345183	      0.00000000	      0.00000000	     97.53146924	     -5.98564881	     -2.93410001	     80.19916159	      1.39973943	     28.54578425	      0.00000000	      0.00000000	    -33.25509912	     -2.34301740	    -10.94139950	     -0.98667936	    -62.75404398	     67.37669400	    109.54006201	     87.91924710	      0.00000000	      0.00000000	     -2.13527154	    -64.53706982	     67.25830193	    104.08793792	     88.14258881	      0.00000000	      0.00000000
      4.97500000	    -41.02212160	      6.23003283	      2.53674528	     -0.44911183	      0.73788156	     -0.91166706	     99.98359585	    -16.54132873	      5.67916811	     81.27667238	      1.41854554	     27.39485333	      0.00000000	      0.00000000	     96.57180899	     -5.53640820	     -2.99504147	     79.88761193	      1.39430186	     28.56069242	      0.00000000	      0.00000000	    -33.88190501	     -2.07113422	    -11.22365938	     -0.83450011	    -62.66389706	     67.32997604	    109.32236017	     87.90840275	      0.00000000	      0.00000000	     -2.01103608	    -64.37697770	     67.25691848	    103.91996567	     88.13833133	      0.00000000	      0.00000000
      4.98000000	    -41.33386279	      6.00104694	      2.43501305	     -0.44957694	      0.73892859	     -0.91134259	    100.02256529	    -16.29877333	      5.49182323	     80.89809413	      1.41193810	     27.38599856	      0.00000000	      0.00000000	     96.80058210	     -5.63337670	     -2.72810649	     79.59450098	      1.38918611	     28.51902024	      0.00000000	      0.00000000	    -33.42224615	     -1.95139436	    -10.98534230	     -0.89496682	    -62.72426248	     67.29199595	    109.41354934	     87.87738128	      0.00000000	      0.00000000	     -2.14452456	    -64.38837467	     67.10703349	    103.98886201	     88.17682222	      0.00000000	      0.00000000
